<?xml version="1.0" encoding="UTF-8"?>
<svg xmlns="http://www.w3.org/2000/svg" xmlns:xlink="http://www.w3.org/1999/xlink" width="150px" height="172px" viewBox="0 0 150 171" version="1.1">
<g id="surface1">
<path style=" stroke:none;fill-rule:nonzero;fill:rgb(91.372549%,79.215686%,19.607843%);fill-opacity:1;" d="M 12.558594 153.085938 L 0 0.285156 L 150 0.59375 L 136.71875 153.085938 L 75.566406 170.714844 Z M 12.558594 153.085938 "/>
<path style=" stroke:none;fill-rule:nonzero;fill:rgb(100%,87.058824%,14.509804%);fill-opacity:1;" d="M 75.566406 155.957031 L 75.566406 14.839844 L 137.335938 15.042969 L 126.320312 141.300781 Z M 75.566406 155.957031 "/>
<path style=" stroke:none;fill-rule:nonzero;fill:rgb(100%,100%,100%);fill-opacity:1;" d="M 68.953125 31.59375 L 52.621094 31.59375 L 52.621094 125.519531 L 39.917969 123.109375 L 39.917969 110.46875 L 24.796875 108.058594 L 24.796875 136.355469 L 68.953125 147.796875 Z M 81.203125 31.59375 L 126.410156 31.59375 L 123.386719 49.597656 L 98.460938 49.597656 L 98.460938 79.136719 L 123.386719 79.136719 L 120.363281 138.765625 L 81.203125 147.796875 L 81.203125 129.132812 L 107.660156 120.101562 L 109.1875 95.414062 L 81.203125 99.449219 Z M 81.203125 31.59375 "/>
</g>
</svg>
